<svg xmlns="http://www.w3.org/2000/svg" width="32" height="32" fill="none"><path fill="#101828" d="M8 4v4H4V4h4Zm2 24v-4a2 2 0 0 0-2-2H4a2 2 0 0 0-2 2v4a2 2 0 0 0 2 2h4a2 2 0 0 0 2-2Zm0-10v-4a2 2 0 0 0-2-2H4a2 2 0 0 0-2 2v4a2 2 0 0 0 2 2h4a2 2 0 0 0 2-2Zm0-10V4a2 2 0 0 0-2-2H4a2 2 0 0 0-2 2v4a2 2 0 0 0 2 2h4a2 2 0 0 0 2-2Zm10 20v-4a2 2 0 0 0-2-2h-4a2 2 0 0 0-2 2v4a2 2 0 0 0 2 2h4a2 2 0 0 0 2-2Zm0-10v-4a2 2 0 0 0-2-2h-4a2 2 0 0 0-2 2v4a2 2 0 0 0 2 2h4a2 2 0 0 0 2-2Zm0-10V4a2 2 0 0 0-2-2h-4a2 2 0 0 0-2 2v4a2 2 0 0 0 2 2h4a2 2 0 0 0 2-2Zm-2-4v4h-4V4h4Zm10 0v4h-4V4h4ZM8 14v4H4v-4h4Zm10 0v4h-4v-4h4Zm10 0h-4v4h4v-4ZM8 24v4H4v-4h4Zm10 0v4h-4v-4h4Zm10 0v4h-4v-4h4ZM24 2a2 2 0 0 0-2 2v4a2 2 0 0 0 2 2h4a2 2 0 0 0 2-2V4a2 2 0 0 0-2-2h-4Zm-2 12a2 2 0 0 1 2-2h4a2 2 0 0 1 2 2v4a2 2 0 0 1-2 2h-4a2 2 0 0 1-2-2v-4Zm2 8a2 2 0 0 0-2 2v4a2 2 0 0 0 2 2h4a2 2 0 0 0 2-2v-4a2 2 0 0 0-2-2h-4Z"/></svg>