<svg xmlns="http://www.w3.org/2000/svg" width="32" height="32" fill="none"><g fill="#101828" clip-path="url(#a)"><path fill-rule="evenodd" d="M1 12a1.001 1.001 0 0 0-.976 1.216l3.304 14.868A5 5 0 0 0 8.208 32h11.584a5 5 0 0 0 4.88-3.916l.262-1.18a6 6 0 0 0 2.6-11.708l.442-1.98A1 1 0 0 0 27 12H1Zm25 13c-.212 0-.423-.017-.632-.05l1.734-7.796A4.002 4.002 0 0 1 26 25ZM5.28 27.65 2.246 14h23.508L22.72 27.65A3 3 0 0 1 19.792 30H8.208a3 3 0 0 1-2.928-2.35Z" clip-rule="evenodd"/><path d="m8.8 1.6-.006.008-.028.038c-.146.2-.282.407-.408.62a4 4 0 0 0-.282.534c-.052.12-.068.184-.074.206v.008a1.2 1.2 0 0 0 .182.496c.15.266.356.544.616.89l.02.024c.236.316.52.694.74 1.086.224.4.44.91.44 1.49 0 .376-.13.736-.238.988a6 6 0 0 1-.404.776 10 10 0 0 1-.506.764l-.036.05-.01.016-.004.004A1 1 0 0 1 7.2 8.4l.006-.008.028-.038c.146-.2.282-.407.408-.62a4 4 0 0 0 .282-.534c.052-.12.068-.184.074-.206a1.2 1.2 0 0 0-.18-.504A8 8 0 0 0 7.2 5.6l-.02-.024a10 10 0 0 1-.74-1.086A3.06 3.06 0 0 1 6 3c0-.376.13-.736.238-.988.118-.276.268-.548.404-.776.159-.261.328-.516.506-.764l.05-.07A1 1 0 1 1 8.8 1.6Zm6 0-.006.008-.028.038c-.146.2-.282.407-.408.62-.107.17-.202.35-.282.534-.052.12-.068.184-.074.206v.008a1.2 1.2 0 0 0 .182.496c.15.266.356.544.616.89l.02.024c.236.316.52.694.74 1.086.224.4.44.91.44 1.49 0 .376-.13.736-.238.988-.116.268-.25.528-.404.776a9.986 9.986 0 0 1-.506.764l-.036.05-.01.016-.004.004A1 1 0 0 1 13.2 8.4l.006-.008.028-.038c.146-.2.282-.407.408-.62.107-.17.202-.35.282-.534.052-.12.068-.184.074-.206a1.2 1.2 0 0 0-.18-.504 8.004 8.004 0 0 0-.618-.89l-.02-.024c-.27-.345-.517-.708-.74-1.086A3.06 3.06 0 0 1 12 3c0-.376.13-.736.238-.988.118-.276.268-.548.404-.776.159-.261.328-.516.506-.764l.05-.07A1 1 0 0 1 14.8 1.6Zm6 0-.006.008-.028.038c-.145.2-.282.407-.408.62-.107.17-.202.35-.282.534-.052.12-.068.184-.074.206v.008a1.2 1.2 0 0 0 .182.496c.15.266.356.544.616.89l.02.024c.236.316.52.694.74 1.086.224.4.44.91.44 1.49 0 .376-.13.736-.238.988-.116.268-.25.528-.404.776-.156.262-.324.517-.504.764l-.038.05-.01.016-.004.004A1 1 0 0 1 19.2 8.4l.006-.008.028-.038c.145-.2.282-.407.408-.62.107-.17.202-.35.282-.534.052-.12.068-.184.074-.206a1.2 1.2 0 0 0-.18-.504 7.99 7.99 0 0 0-.618-.89l-.02-.024c-.27-.345-.517-.708-.74-1.086A3.06 3.06 0 0 1 18 3c0-.376.13-.736.238-.988.118-.276.268-.548.404-.776.159-.261.328-.516.506-.764l.05-.07A1 1 0 0 1 20.8 1.6Z"/></g><defs><clipPath id="a"><path fill="#fff" d="M0 0h32v32H0z"/></clipPath></defs></svg>