<svg xmlns="http://www.w3.org/2000/svg" width="32" height="32" fill="none"><path fill="#101828" fill-rule="evenodd" d="M12 7a3 3 0 0 1 3-3h2a3 3 0 0 1 3 3v2a3 3 0 0 1-3 3v2h11a1 1 0 0 1 1 1v2a1 1 0 0 1-2 0v-1H17v1a1 1 0 0 1-2 0v-1H5v1a1 1 0 1 1-2 0v-2a1 1 0 0 1 1-1h11v-2a3 3 0 0 1-3-3V7Zm5 3a1 1 0 0 0 1-1V7a1 1 0 0 0-1-1h-2a1 1 0 0 0-1 1v2a1 1 0 0 0 1 1h2ZM0 23a3 3 0 0 1 3-3h2a3 3 0 0 1 3 3v2a3 3 0 0 1-3 3H3a3 3 0 0 1-3-3v-2Zm3-1a1 1 0 0 0-1 1v2a1 1 0 0 0 1 1h2a1 1 0 0 0 1-1v-2a1 1 0 0 0-1-1H3Zm9 1a3 3 0 0 1 3-3h2a3 3 0 0 1 3 3v2a3 3 0 0 1-3 3h-2a3 3 0 0 1-3-3v-2Zm3-1a1 1 0 0 0-1 1v2a1 1 0 0 0 1 1h2a1 1 0 0 0 1-1v-2a1 1 0 0 0-1-1h-2Zm9 1a3 3 0 0 1 3-3h2a3 3 0 0 1 3 3v2a3 3 0 0 1-3 3h-2a3 3 0 0 1-3-3v-2Zm3-1a1 1 0 0 0-1 1v2a1 1 0 0 0 1 1h2a1 1 0 0 0 1-1v-2a1 1 0 0 0-1-1h-2Z" clip-rule="evenodd"/></svg>