<svg xmlns="http://www.w3.org/2000/svg" width="32" height="32" fill="none"><path stroke="#101828" stroke-linecap="round" stroke-linejoin="round" stroke-width="2" d="M26.667 5.333H5.333A2.667 2.667 0 0 0 2.667 8v14.667a2.667 2.667 0 0 0 2.666 2.666h21.334a2.667 2.667 0 0 0 2.666-2.666V8a2.667 2.667 0 0 0-2.666-2.667Z"/><path stroke="#101828" stroke-linecap="round" stroke-linejoin="round" stroke-width="2" d="M17.333 10.667h-8C8.597 10.667 8 11.264 8 12v6.667C8 19.403 8.597 20 9.333 20h8c.737 0 1.334-.597 1.334-1.333V12c0-.736-.597-1.333-1.334-1.333ZM24 10.667V20M8 25.333V28m16-2.667V28"/></svg>