<svg xmlns="http://www.w3.org/2000/svg" width="32" height="32" fill="none"><path fill="#101828" d="M23.667 9.333a1 1 0 0 0-2 0V12a1 1 0 1 0 2 0V9.333Zm0 9.334a1 1 0 0 0-2 0v2.666a1 1 0 1 0 2 0v-2.666Z"/><path fill="#101828" fill-rule="evenodd" d="M16.075 1.667h-.15c-2.45 0-4.392 0-5.91.204-1.563.21-2.828.653-3.827 1.65-.997.999-1.44 2.264-1.65 3.827-.205 1.52-.205 3.46-.205 5.91v4.15c0 2.45 0 4.392.204 5.91.211 1.563.654 2.829 1.651 3.827.613.612 1.325 1.015 2.145 1.284v.904a1 1 0 0 0 1 1h1.334a1 1 0 0 0 1-1v-.394c1.209.061 2.62.061 4.258.061h.15c1.64 0 3.049 0 4.258-.061v.394a1 1 0 0 0 1 1h1.334a1 1 0 0 0 1-1v-.904c.82-.269 1.533-.672 2.145-1.284.997-.998 1.44-2.264 1.65-3.826.205-1.52.205-3.46.205-5.911V13.26c0-2.45 0-4.392-.204-5.91-.211-1.563-.654-2.829-1.651-3.827-.999-.998-2.264-1.44-3.827-1.651-1.52-.204-3.46-.204-5.91-.204M7.603 4.936c.564-.564 1.337-.903 2.678-1.083 1.371-.184 3.176-.186 5.719-.186s4.35.002 5.72.186c1.34.18 2.113.519 2.677 1.083.564.564.903 1.337 1.083 2.679.184 1.37.187 3.176.187 5.718v1H6.333v-1c0-2.542.003-4.348.187-5.72.18-1.34.519-2.113 1.083-2.677Zm-1.27 11.397h19.334v1c0 2.543-.003 4.35-.187 5.72-.18 1.34-.519 2.114-1.083 2.678-.564.564-1.337.902-2.678 1.082-1.371.184-3.176.187-5.719.187s-4.348-.003-5.72-.187c-1.34-.18-2.113-.518-2.677-1.082-.564-.564-.903-1.338-1.083-2.679-.184-1.37-.187-3.176-.187-5.719v-1Z" clip-rule="evenodd"/></svg>